#!OML:ASF F:\VICON\USERDATA\INSTALL\rory3\rory3.ASF
:FULLY-SPECIFIED
:DEGREES
47
root 0.663721171245376 17.950406422200697 34.312358259543245 -3.894446174328219 0.0863972350461828 -3.083771028625756
lfemur -14.168945340267868 -3.1074820019780227 -20.75698071577328
ltibia 17.647364363314466
lfoot -6.7854718209476514 -4.888087623543846
ltoes -5.720544776251628
rfemur -1.6138778836768317 3.994664782326595 27.440202835363724
rtibia 57.5331188446957
rfoot -1.1806575718824712 -9.848628744407907
rtoes 10.979322328760642
lowerback 9.335437555576739 1.4145585733992023 3.8458030918783153
upperback 0.03628791088223603 2.4649092731089217 1.0390388106929134
thorax -4.82465089157723 1.1316332784218412 -1.6291575601381494
lowerneck -16.229201124756784 -3.3405348517020705 -1.67535027967717
upperneck 21.600640950640436 -4.427124911837283 1.6203512310730908
head 9.673960751036441 -2.0649783909863535 0.26380021450804314
lclavicle 5.848358262983712e-16 -6.853106693165715e-16
lhumerus -34.41416827135317 6.107701084051854 80.94580766901795
lradius 25.952195066590257
lwrist 7.760990225512643
lhand -28.652568995300793 20.930272044316403
lfingers nan
lthumb -2.2065146213557334 50.708301695076244
rclavicle 4.435281236373582e-16 -8.049219838054566e-16
rhumerus -24.72391622984729 -12.276103708441818 -80.04181987462108
rradius 30.201248463913537
rwrist 2.327674006002576
rhand -17.73897288856202 21.580972811993657
rfingers nan
rthumb 8.687718317032017 -7.774331032090051
48
root 0.661591574715645 17.921024275486158 35.68985224963018 -4.296671039625364 -0.11988932058368551 -1.3969471895906724
lfemur -10.131487189987991 -3.2506892754666694 -22.648511452597923
ltibia 17.119033000038733
lfoot -7.023292035556484 -4.282426037699752
ltoes -5.667782367853347
rfemur -5.660559704373204 3.1025079468032284 25.08827415944768
rtibia 64.1268572679748
rfoot -2.578434345011665 -8.177133516032022
rtoes 10.076209767547567
lowerback 9.494059771129201 1.0954131537233858 2.0281441561062774
upperback 0.14426079335249414 1.729336157129008 0.8026193725483853
thorax -4.911049166779691 0.8176335918261011 -0.891782552112442
lowerneck -16.34107576710015 -3.309557354652844 -1.6524367466664853
upperneck 21.535690383772767 -4.381126298102088 1.7250264846182355
head 9.66027294508799 -2.0417610932093084 0.321671725710171
lclavicle 5.767108123508912e-16 -6.890159366400119e-16
lhumerus -33.209730608847366 5.049357205695299 80.95923108082677
lradius 26.450475286691884
lwrist 7.757741898499484
lhand -28.50364318156645 20.98841656434861
lfingers nan
lthumb -2.036259433539749 50.77094975886305
rclavicle 4.4090948335322446e-16 -8.022096173796311e-16
rhumerus -25.505304945577358 -13.636187608179993 -81.11241772267226
rradius 29.181509145805368
rwrist 2.5545103183608564
rhand -17.76265203007966 21.59825964870121
rfingers nan
rthumb 8.672862699320868 -7.724786521368832
49
root 0.6612295329712221 17.885806513751625 37.12056978502767 -4.564096069116564 -0.09247814837391477 -0.14402925720372495
lfemur -6.253573370585359 -3.541826998041228 -24.107663040262473
ltibia 17.020111257663945
lfoot -7.6321142338998245 -4.117040388627934
ltoes -5.265044145209791
rfemur -10.307693705617544 2.0048858374990033 22.755922262535165
rtibia 69.3712239818647
rfoot -3.734528567304981 -5.553259383417667
rtoes 8.611103857987839
lowerback 9.677705415039718 0.736096151447514 0.560067317539619
upperback 0.23892302682805105 1.0244991054990458 0.6129838732839292
thorax -4.992334200138669 0.49692517817777926 -0.15606316176344104
lowerneck -16.442264243025804 -3.253392725395151 -1.6243168930284402
upperneck 21.442039289952326 -4.2944759866243665 1.789932989899127
head 9.65230004242762 -2.0053133740320592 0.3710582703264905
lclavicle 5.63958397747586e-16 -6.951335107628316e-16
lhumerus -31.738039281617077 4.021182658146234 80.9500530549255
lradius 26.933308126936687
lwrist 7.619688508152034
lhand -28.29398338575953 21.001634343541973
lfingers nan
lthumb -1.8406711582711222 50.73906223775246
rclavicle 4.3310612321519965e-16 -8.004295052219414e-16
rhumerus -26.42424583871994 -15.226546522706395 -81.99742033478513
rradius 28.29911295290704
rwrist 2.5447069533025304
rhand -17.77798863999146 21.65798976192044
rfingers nan
rthumb 8.652313228775945 -7.652834412662222
50
root 0.6390394082524877 17.84522971648254 37.66921216169349 -4.686456310906453 -0.08296095450138052 0.4604332664909758
lfemur -2.698604712432509 -3.8373990101948374 -24.887315251469484
ltibia 17.164284727874325
lfoot -6.702717530032456 -4.610180168818033
ltoes -5.346875638211804
rfemur -14.955560544509094 1.228227745188145 21.350512490120146
rtibia 72.34098051737573
rfoot -4.446137366983004 -2.874055855275398
rtoes 6.787418361000264
lowerback 9.907492395832266 0.3961604141644747 -0.3727781637472587
upperback 0.29507957449872424 0.4223737792133851 0.5273784724177679
thorax -5.076187546529566 0.22021087113458993 0.493948132766543
lowerneck -16.561881473380204 -3.184386720883998 -1.636286820152501
upperneck 21.36088072609267 -4.182556589120443 1.8049639905348314
head 9.649432688638896 -1.960668423406692 0.410584876126638
lclavicle 5.497156443911499e-16 -7.022694078302391e-16
lhumerus -30.055981866147444 2.9860089622617423 80.87610766732556
lradius 27.34020128839275
lwrist 7.015353420257711
lhand -28.211074688612907 20.733784753756535
lfingers nan
lthumb -1.7285276872379147 50.51515707619937
rclavicle 4.2289617991209494e-16 -7.999419695946711e-16
rhumerus -27.526076508739223 -16.804515462682073 -82.66806166809867
rradius 27.735570649214605
rwrist 2.240837323630716
rhand -17.790348715613188 21.679011076360844
rfingers nan
rthumb 8.637890174392323 -7.631801763818977
